<svg version="1.1" xmlns="http://www.w3.org/2000/svg" xmlns:xlink="http://www.w3.org/1999/xlink" width="190.5" height="197.58167" viewBox="0,0,190.5,197.58167"><g transform="translate(-115.25,-66.46112)"><g data-paper-data="{&quot;isPaintingLayer&quot;:true}" fill-rule="nonzero" stroke-linecap="butt" stroke-linejoin="miter" stroke-miterlimit="10" stroke-dasharray="" stroke-dashoffset="0" style="mix-blend-mode: normal"><path d="M121.01758,259.54279c0,0 -4.01758,-1.63342 -4.01758,-8.94279c0,-33.52189 0,-128.58463 0,-144.6c0,-4.49347 2.92187,-6.49279 2.92187,-6.49279c0,0 2.9605,-1.8 9.49609,-1.8c18.43136,0 86.35121,0.30149 130.66627,-1.98063c8.21445,-0.42302 16.80419,-6.82528 20.79266,-12.39926c1.94929,-2.72418 8.91613,-12.00196 12.26085,-14.28777c2.04662,-1.39868 10.49701,-0.83234 10.49701,-0.83234c0,0 0.36523,169.46706 0.36523,187.54279c0,3.75039 -3.28711,4.79279 -3.28711,4.79279c0,0 -3.46669,1.5 -9.42305,1.5c-32.30123,0 -134.53341,0.25 -157.45254,0.25c-8.53888,0 -12.81973,-2.75 -12.81973,-2.75z" fill="#f7f7f7" stroke="#000000" stroke-width="3.5"/><text transform="translate(124.78333,115.54604) scale(0.29377,0.29377)" font-size="40" xml:space="preserve" fill="#3c3c3c" fill-rule="nonzero" stroke="none" stroke-width="1" stroke-linecap="butt" stroke-linejoin="miter" stroke-miterlimit="10" stroke-dasharray="" stroke-dashoffset="0" font-family="Sans Serif" font-weight="normal" text-anchor="start" style="mix-blend-mode: normal"><tspan x="0" dy="0">                     About</tspan><tspan x="0" dy="46.15px">Gibberle is like any other</tspan><tspan x="0" dy="46.15px">Wordle clone, but instead</tspan><tspan x="0" dy="46.15px">of actual words it's mostly</tspan><tspan x="0" dy="46.15px">gibberish. Occasionally a</tspan><tspan x="0" dy="46.15px">real word may appear though.</tspan><tspan x="0" dy="46.15px"> </tspan><tspan x="0" dy="46.15px">                    Credits</tspan><tspan x="0" dy="46.15px">Gibberle is the brainchild of</tspan><tspan x="0" dy="46.15px">Teagan Penland, although </tspan><tspan x="0" dy="46.15px">based off of the idea of Wordle.</tspan></text></g></g></svg>