<svg version="1.1" xmlns="http://www.w3.org/2000/svg" xmlns:xlink="http://www.w3.org/1999/xlink" width="80.30521" height="39.71047" viewBox="0,0,80.30521,39.71047"><g transform="translate(-199.84739,-160.14476)"><g data-paper-data="{&quot;isPaintingLayer&quot;:true}" fill-rule="nonzero" stroke-linecap="butt" stroke-linejoin="miter" stroke-miterlimit="10" stroke-dasharray="" stroke-dashoffset="0" style="mix-blend-mode: normal"><g stroke="none" stroke-width="0"><path d="M201.38704,196.76221c-2.85942,-2.18444 -1.30178,-32.58119 1.14935,-34.58333c1.64583,-1.34435 73.08655,-4.16995 75.47395,0.75c2.63134,5.42266 2.9312,30.73363 0.38312,34c-3.86433,4.95366 -73.21382,2.73067 -77.00642,-0.16667z" fill="#000000"/><path d="M204.51866,193.73657c-2.62751,-1.79014 -1.1962,-26.70018 1.05614,-28.34092c1.51235,-1.10169 67.15902,-3.41726 69.3528,0.61462c2.41793,4.44385 2.69347,25.1861 0.35205,27.86288c-3.55092,4.05951 -67.27597,2.23777 -70.76098,-0.13658z" fill="#ff9a0e"/></g><path d="M219.47,190.37795c-5.93706,0 -10.75,-4.73404 -10.75,-10.57377c0,-5.83973 4.81294,-10.57377 10.75,-10.57377c5.93706,0 10.75,4.73404 10.75,10.57377c0,5.83973 -4.81294,10.57377 -10.75,10.57377z" fill="#313131" stroke="#000000" stroke-width="5"/></g></g></svg>